HIERARCHY
ROOT simHips
{
  OFFSET 101.471 99.41 113.622
  CHANNELS 6 Xposition Yposition Zposition Zrotation Xrotation Yrotation
  JOINT simSpine
  {
    OFFSET -0.000355721 21.3001 -0.016921
    CHANNELS 3 Zrotation Xrotation Yrotation
    JOINT simLeftArm
    {
      OFFSET 13.5181 21.3012 0
      CHANNELS 3 Zrotation Xrotation Yrotation
      JOINT simLeftForeArm
      {
        OFFSET 24.5783 0 0
        CHANNELS 3 Zrotation Xrotation Yrotation
        JOINT simLeftHand
        {
          OFFSET 24.5783 0 0
          CHANNELS 3 Zrotation Xrotation Yrotation
          End Site
          {
            OFFSET 7.32568 1.52588e-05 0.0169305
          }
        }
      }
    }
    JOINT simHead
    {
      OFFSET 0 27.4458 -0.00489235
      CHANNELS 3 Zrotation Xrotation Yrotation
      End Site
      {
        OFFSET 0 0 0
      }
    }
    JOINT simRightArm
    {
      OFFSET -13.5174 21.3012 0
      CHANNELS 3 Zrotation Xrotation Yrotation
      JOINT simRightForeArm
      {
        OFFSET -24.5783 0 0
        CHANNELS 3 Zrotation Xrotation Yrotation
        JOINT simRightHand
        {
          OFFSET -24.5783 0 0
          CHANNELS 3 Zrotation Xrotation Yrotation
          End Site
          {
            OFFSET -7.32568 1.52588e-05 0.0169305
          }
        }
      }
    }
  }
  JOINT simRightUpLeg
  {
    OFFSET -8.44614 -9.41038 0.835684
    CHANNELS 3 Zrotation Xrotation Yrotation
    JOINT simRightLeg
    {
      OFFSET 0 -40.9639 0
      CHANNELS 3 Zrotation Xrotation Yrotation
      JOINT simRightFoot
      {
        OFFSET 0 -40.9639 0
        CHANNELS 3 Zrotation Xrotation Yrotation
        End Site
        {
          OFFSET 0.50614 -9.67405 14.6709
        }
      }
    }
  }
  JOINT simLeftUpLeg
  {
    OFFSET 8.44614 -9.41038 0.835684
    CHANNELS 3 Zrotation Xrotation Yrotation
    JOINT simLeftLeg
    {
      OFFSET 0 -40.9639 0
      CHANNELS 3 Zrotation Xrotation Yrotation
      JOINT simLeftFoot
      {
        OFFSET 0 -40.9639 0
        CHANNELS 3 Zrotation Xrotation Yrotation
        End Site
        {
          OFFSET -0.50614 -9.67405 14.6709
        }
      }
    }
  }
}
MOTION
Frames:	12
Frame Time:	0.0333333
-45.8859 92.5491 9.36206 -9.70295 6.21675 68.6855 4.8403 15.1978 -21.1399 -82.5043 42.2687 80.2131 18.5985 -7.79046 -73.6972 9.29783 -45.1999 8.46064 43.5275 -9.53911 14.4656 12.9058 16.7973 -6.2968 -12.3323 -23.5167 87.4259 -5.9774 -22.5169 16.5856 -24.2373 -33.9743 -12.9024 -0.181615 10.7519 0.731871 14.5432 19.3281 2.30033 21.9099 -2.48164 10.0286 -1.07606 2.60813 1.22083 -16.4804 -2.18961 -3.7789 
-47.103 93.4899 9.02501 -11.2956 5.97989 70.5416 7.88721 20.304 -18.2063 -86.8165 36.1741 89.193 19.0569 -8.61218 -76.8563 -7.70187 -43.1131 -7.50528 41.3563 -4.11571 8.39213 19.6596 23.2547 -12.4437 -12.2566 -23.7481 88.1845 -8.8996 -23.1472 15.6804 -24.2946 -38.788 -12.5972 -0.358126 15.6106 0.787509 12.8945 21.8344 -1.35094 22.2196 -5.429 10.7687 -0.616301 1.56144 1.00383 -15.5022 1.36145 -3.93594 
-48.6954 93.8612 8.95485 -12.8219 6.4007 71.621 9.09391 27.4837 -14.9603 -84.579 29.0738 90.8849 18.9889 -8.48376 -76.369 -10.5704 -55.3622 -13.8325 39.1903 -0.639096 8.32333 31.0983 27.3491 -18.4185 -12.4537 -23.1182 86.1294 -10.1965 -24.6195 14.9628 -23.3721 -43.4158 -11.0026 -0.418936 17.2303 0.890284 16.0364 20.5363 5.65304 22.5355 -8.99102 11.8437 -1.22095 2.93185 0.942322 -13.7256 2.80649 -3.74554 
-50.1742 93.4804 9.71 -13.0135 8.32555 74.4831 7.43885 35.3118 -9.07942 -76.4255 26.2412 87.6724 18.4937 -7.61968 -73.0276 -77.086 -70.545 -80.466 40.1844 -1.94893 8.37053 47.4595 27.2389 -26.6972 -12.8217 -21.5893 81.264 -13.4434 -30.8833 11.09 -24.0474 -41.8106 -15.0285 0.143115 8.72957 1.13701 18.6939 24.9739 1.47832 22.3283 -14.2089 12.6924 -4.09944 9.872 1.14224 -13.1073 2.17352 -4.19919 
-51.4522 92.2436 11.156 -14.0034 10.4309 80.0534 5.98862 41.672 -2.67662 -67.5638 27.9391 83.8687 18.0295 -6.90194 -70.1589 -93.8734 -62.2422 -98.5937 44.5314 -5.89117 8.13876 60.8268 22.6536 -30.4721 -13.0343 -20.2077 76.9839 -21.9922 -40.4303 2.29356 -26.3973 -39.0835 -19.7599 0.218771 4.04811 0.712472 7.93099 22.5721 1.62943 22.8398 -22.2186 15.0482 -7.3622 20.1515 1.91965 -12.3137 1.53425 -3.50701 
-52.5482 90.9455 12.3036 -18.46 10.1642 85.8241 7.43427 44.9897 2.64494 -59.003 28.0269 77.925 17.8039 -6.57932 -68.8372 -91.9518 -63.5798 -98.1353 46.5395 -9.25843 9.83274 65.889 16.9051 -27.2027 -12.9292 -20.9668 79.323 -34.0277 -46.1241 -9.50791 -32.2149 -46.6264 -21.3983 -0.39551 14.0868 0.496321 10.4068 18.3409 -5.23923 26.0473 -31.3134 17.8676 -9.8496 26.2073 2.92872 -14.6649 2.83203 1.48194 
-53.2995 89.9111 12.6193 -21.7208 6.54792 90.3012 11.9007 49.1836 3.90939 -54.4939 24.4825 75.0655 17.6608 -6.38246 -68.0197 -92.1622 -63.0645 -98.9501 44.6459 -10.6113 11.0228 62.545 11.7452 -17.6187 -12.5328 -22.8373 85.2233 -36.9331 -44.486 -8.62706 -36.7183 -51.1859 -30.8242 -0.76212 21.7721 0.452664 10.4701 17.0638 -3.35698 29.4176 -36.3043 19.0562 -9.49414 25.4492 2.76781 -14.7923 2.39929 1.80384 
-54.0966 88.5963 12.9449 -24.5526 5.63239 93.4732 9.61416 52.4551 7.03804 -52.8511 22.57 75.8959 17.634 -6.34619 -67.8683 -86.2335 -62.0738 -92.3977 41.8903 -11.2881 7.84569 57.6796 5.75805 -8.06765 -11.867 -24.7924 91.6719 -37.6418 -41.5831 -3.16421 -41.9548 -54.5776 -33.3945 -0.982645 25.9814 0.384081 11.7281 14.1448 -6.57827 29.9313 -38.9999 23.357 -8.19473 22.4711 2.29604 -15.9 3.2461 -1.49723 
-54.8934 87.7494 12.4912 -28.8243 4.59755 96.6568 8.31914 52.9954 9.4941 -53.6791 22.6067 77.679 17.7953 -6.56722 -68.7873 -80.66 -62.9635 -85.0178 37.6749 -13.8191 4.86538 51.6124 -1.4524 -1.74702 -11.0456 -26.4944 97.6279 -36.2446 -41.9365 0.798851 -49.1562 -56.7217 -40.4313 -1.02872 26.3619 0.368392 11.7466 14.0966 -8.74899 31.5738 -44.7105 27.2527 -8.1204 22.3753 2.28098 -17.002 4.59346 -4.54369 
-55.6618 87.3324 11.683 -31.7916 3.25944 99.2496 8.28664 54.0693 8.97223 -55.0127 22.0118 78.88 17.9213 -6.74525 -69.5193 -76.1545 -63.9569 -79.4772 33.6708 -17.4815 5.78596 44.8178 -5.81398 4.16901 -10.3423 -27.6428 101.895 -35.132 -42.4621 3.45479 -54.3301 -56.9164 -45.6535 -0.981811 25.25 0.431647 12.3212 15.2421 -10.7517 33.5896 -49.4466 31.5491 -8.49942 23.3428 2.34169 -16.3029 6.13161 -7.71455 
-56.4389 87.1056 10.5766 -32.5628 1.86767 100.644 9.18265 55.479 9.82606 -54.1394 22.5964 77.0242 18.1901 -7.14164 -71.1273 -79.7608 -64.0309 -83.3565 29.5059 -16.1786 5.04492 37.0468 -9.25537 8.86234 -10.1933 -27.852 102.705 -32.117 -41.5768 6.80327 -54.3423 -55.4927 -45.5352 -0.835184 22.2812 0.499342 12.9383 16.4776 -12.6824 35.3259 -51.8369 34.7799 -9.11939 24.7053 2.48297 -14.6316 6.43056 -10.3375 
-57.2874 86.9627 9.33781 -33.4666 0.926362 101.616 9.90797 55.3785 9.15292 -52.8623 22.7044 74.8496 18.3981 -7.46533 -72.4183 -97.7397 -60.0962 -102.692 26.4905 -13.0627 5.64914 31.1994 -9.03763 14.2906 -10.2055 -27.8419 102.659 -27.137 -40.5228 7.30717 -54.0269 -53.5778 -46.0311 -0.586812 17.5498 0.574696 13.2326 18.8207 -13.7904 36.2194 -54.2105 36.7284 -9.56661 25.6809 2.58484 -13.0575 6.41813 -11.481 
